<svg xmlns="http://www.w3.org/2000/svg" xmlns:xlink="http://www.w3.org/1999/xlink" width="500" zoomAndPan="magnify" viewBox="0 0 375 374.999991" height="500" preserveAspectRatio="xMidYMid meet" version="1.0"><defs><clipPath id="3ea7dccddf"><path d="M 40.6875 34.171875 L 124 34.171875 L 124 115 L 40.6875 115 Z M 40.6875 34.171875 " clip-rule="nonzero"/></clipPath><clipPath id="e48706cfb8"><path d="M 252 34.171875 L 334.6875 34.171875 L 334.6875 115 L 252 115 Z M 252 34.171875 " clip-rule="nonzero"/></clipPath><clipPath id="1df6fd101a"><path d="M 40.6875 260 L 124 260 L 124 340.921875 L 40.6875 340.921875 Z M 40.6875 260 " clip-rule="nonzero"/></clipPath><clipPath id="b16844d944"><path d="M 40.6875 180 L 68 180 L 68 235 L 40.6875 235 Z M 40.6875 180 " clip-rule="nonzero"/></clipPath><clipPath id="4087f4e323"><path d="M 40.6875 140 L 148 140 L 148 235 L 40.6875 235 Z M 40.6875 140 " clip-rule="nonzero"/></clipPath><clipPath id="7b645d6116"><path d="M 187 34.171875 L 202 34.171875 L 202 48 L 187 48 Z M 187 34.171875 " clip-rule="nonzero"/></clipPath><clipPath id="feb5762117"><path d="M 134 34.171875 L 242 34.171875 L 242 155 L 134 155 Z M 134 34.171875 " clip-rule="nonzero"/></clipPath><clipPath id="1dab06787c"><path d="M 134 100 L 334.6875 100 L 334.6875 340.921875 L 134 340.921875 Z M 134 100 " clip-rule="nonzero"/></clipPath><clipPath id="6463248181"><path d="M 321 207 L 334.6875 207 L 334.6875 221 L 321 221 Z M 321 207 " clip-rule="nonzero"/></clipPath></defs><path fill="#000000" d="M 362.5 237.5 C 355.589844 237.5 350 243.089844 350 250 L 350 350 L 263.269531 350 C 256.359375 350 250.769531 355.589844 250.769531 362.5 C 250.769531 369.410156 256.359375 375 263.269531 375 L 362.5 375 C 369.410156 375 375 369.410156 375 362.5 L 375 250 C 375 243.089844 369.410156 237.5 362.5 237.5 Z M 362.5 237.5 " fill-opacity="1" fill-rule="nonzero"/><path fill="#000000" d="M 12.5 375 L 111.726562 375 C 118.628906 375 124.226562 369.410156 124.226562 362.5 C 124.226562 355.589844 118.628906 350 111.726562 350 L 25 350 L 25 250 C 25 243.089844 19.402344 237.5 12.5 237.5 C 5.597656 237.5 0 243.089844 0 250 L 0 362.5 C 0 369.410156 5.597656 375 12.5 375 Z M 12.5 375 " fill-opacity="1" fill-rule="nonzero"/><path fill="#000000" d="M 362.5 0 L 250 0 C 243.089844 0 237.5 5.589844 237.5 12.5 C 237.5 19.410156 243.089844 25 250 25 L 350 25 L 350 125 C 350 131.910156 355.589844 137.5 362.5 137.5 C 369.410156 137.5 375 131.910156 375 125 L 375 12.5 C 375 5.589844 369.410156 0 362.5 0 Z M 362.5 0 " fill-opacity="1" fill-rule="nonzero"/><path fill="#000000" d="M 12.5 137.5 C 19.402344 137.5 25 131.910156 25 125 L 25 25 L 125 25 C 131.902344 25 137.5 19.410156 137.5 12.5 C 137.5 5.589844 131.902344 0 125 0 L 12.5 0 C 5.597656 0 0 5.589844 0 12.5 L 0 125 C 0 131.910156 5.597656 137.5 12.5 137.5 Z M 12.5 137.5 " fill-opacity="1" fill-rule="nonzero"/><path fill="#040606" d="M 95.601562 60.679688 L 68.273438 60.679688 L 68.273438 87.980469 L 95.601562 87.980469 L 95.601562 60.679688 " fill-opacity="1" fill-rule="nonzero"/><g clip-path="url(#3ea7dccddf)"><path fill="#040606" d="M 107.777344 99.246094 L 56.09375 99.246094 L 56.09375 49.414062 L 107.777344 49.414062 Z M 123.035156 34.171875 L 40.839844 34.171875 L 40.839844 114.488281 L 123.035156 114.488281 L 123.035156 34.171875 " fill-opacity="1" fill-rule="nonzero"/></g><path fill="#040606" d="M 307.097656 60.679688 L 279.773438 60.679688 L 279.773438 87.980469 L 307.097656 87.980469 L 307.097656 60.679688 " fill-opacity="1" fill-rule="nonzero"/><g clip-path="url(#e48706cfb8)"><path fill="#040606" d="M 319.28125 99.246094 L 267.597656 99.246094 L 267.597656 49.414062 L 319.28125 49.414062 Z M 252.339844 34.171875 L 252.339844 114.488281 L 334.535156 114.488281 L 334.535156 34.171875 L 252.339844 34.171875 " fill-opacity="1" fill-rule="nonzero"/></g><path fill="#040606" d="M 68.273438 314.414062 L 95.601562 314.414062 L 95.601562 287.113281 L 68.273438 287.113281 L 68.273438 314.414062 " fill-opacity="1" fill-rule="nonzero"/><g clip-path="url(#1df6fd101a)"><path fill="#040606" d="M 56.09375 275.847656 L 107.777344 275.847656 L 107.777344 325.679688 L 56.09375 325.679688 Z M 40.839844 340.921875 L 123.035156 340.921875 L 123.035156 260.605469 L 40.839844 260.605469 L 40.839844 340.921875 " fill-opacity="1" fill-rule="nonzero"/></g><g clip-path="url(#b16844d944)"><path fill="#040606" d="M 54.1875 180.878906 L 40.839844 180.878906 L 40.839844 234.226562 L 54.1875 234.226562 L 54.1875 220.886719 L 67.539062 220.886719 L 67.539062 207.550781 L 54.1875 207.550781 L 54.1875 180.878906 " fill-opacity="1" fill-rule="nonzero"/></g><path fill="#040606" d="M 120.9375 140.867188 L 94.238281 140.867188 L 94.238281 154.203125 L 107.589844 154.203125 L 107.589844 167.539062 L 120.9375 167.539062 L 120.9375 140.867188 " fill-opacity="1" fill-rule="nonzero"/><path fill="#040606" d="M 120.9375 234.226562 L 120.9375 220.886719 L 107.589844 220.886719 L 107.589844 234.226562 L 120.9375 234.226562 " fill-opacity="1" fill-rule="nonzero"/><g clip-path="url(#4087f4e323)"><path fill="#040606" d="M 147.636719 167.539062 L 120.9375 167.539062 L 120.9375 180.878906 L 107.589844 180.878906 L 107.589844 194.214844 L 80.886719 194.214844 L 80.886719 167.539062 L 67.539062 167.539062 L 67.539062 140.867188 L 54.1875 140.867188 L 54.1875 154.203125 L 40.839844 154.203125 L 40.839844 167.539062 L 54.1875 167.539062 L 54.1875 180.878906 L 67.539062 180.878906 L 67.539062 207.550781 L 80.886719 207.550781 L 80.886719 234.226562 L 94.238281 234.226562 L 94.238281 220.886719 L 107.589844 220.886719 L 107.589844 207.550781 L 120.9375 207.550781 L 120.9375 194.214844 L 134.289062 194.214844 L 134.289062 207.550781 L 147.636719 207.550781 L 147.636719 167.539062 " fill-opacity="1" fill-rule="nonzero"/></g><g clip-path="url(#7b645d6116)"><path fill="#040606" d="M 201.039062 34.171875 L 187.6875 34.171875 L 187.6875 47.507812 L 201.039062 47.507812 L 201.039062 34.171875 " fill-opacity="1" fill-rule="nonzero"/></g><g clip-path="url(#feb5762117)"><path fill="#040606" d="M 174.335938 87.519531 L 147.636719 87.519531 L 147.636719 74.183594 L 174.335938 74.183594 Z M 201.039062 114.191406 L 201.039062 100.855469 L 187.6875 100.855469 L 187.6875 74.183594 L 201.039062 74.183594 L 201.039062 100.855469 L 214.386719 100.855469 L 214.386719 74.183594 L 227.738281 74.183594 L 227.738281 87.519531 L 241.085938 87.519531 L 241.085938 60.84375 L 214.386719 60.84375 L 214.386719 47.507812 L 201.039062 47.507812 L 201.039062 60.84375 L 187.6875 60.84375 L 187.6875 47.507812 L 174.335938 47.507812 L 174.335938 34.171875 L 147.636719 34.171875 L 147.636719 47.507812 L 160.988281 47.507812 L 160.988281 60.84375 L 147.636719 60.84375 L 147.636719 47.507812 L 134.289062 47.507812 L 134.289062 100.855469 L 147.636719 100.855469 L 147.636719 114.191406 L 160.988281 114.191406 L 160.988281 100.855469 L 174.335938 100.855469 L 174.335938 114.191406 L 160.988281 114.191406 L 160.988281 127.53125 L 134.289062 127.53125 L 134.289062 154.203125 L 147.636719 154.203125 L 147.636719 140.867188 L 174.335938 140.867188 L 174.335938 127.53125 L 187.6875 127.53125 L 187.6875 114.191406 L 201.039062 114.191406 " fill-opacity="1" fill-rule="nonzero"/></g><path fill="#040606" d="M 187.6875 127.53125 L 187.6875 140.867188 L 201.039062 140.867188 L 201.039062 127.53125 L 187.6875 127.53125 " fill-opacity="1" fill-rule="nonzero"/><path fill="#040606" d="M 307.835938 194.214844 L 321.1875 194.214844 L 321.1875 180.878906 L 307.835938 180.878906 L 307.835938 194.214844 " fill-opacity="1" fill-rule="nonzero"/><g clip-path="url(#1dab06787c)"><path fill="#040606" d="M 294.488281 154.203125 L 281.136719 154.203125 L 281.136719 140.867188 L 294.488281 140.867188 Z M 307.835938 300.910156 L 307.835938 314.246094 L 321.1875 314.246094 L 321.1875 327.585938 L 294.488281 327.585938 L 294.488281 300.910156 Z M 254.4375 274.234375 L 241.085938 274.234375 L 241.085938 287.574219 L 227.738281 287.574219 L 227.738281 274.234375 L 241.085938 274.234375 L 241.085938 260.898438 L 227.738281 260.898438 L 227.738281 247.5625 L 241.085938 247.5625 L 241.085938 260.898438 L 254.4375 260.898438 Z M 214.386719 287.574219 L 174.335938 287.574219 L 174.335938 274.234375 L 187.6875 274.234375 L 187.6875 247.5625 L 214.386719 247.5625 Z M 147.636719 260.898438 L 147.636719 247.5625 L 160.988281 247.5625 L 160.988281 234.226562 L 174.335938 234.226562 L 174.335938 260.898438 Z M 160.988281 300.910156 L 147.636719 300.910156 L 147.636719 274.234375 L 160.988281 274.234375 Z M 241.085938 180.878906 L 227.738281 180.878906 L 227.738281 167.539062 L 241.085938 167.539062 Z M 321.1875 140.867188 L 307.835938 140.867188 L 307.835938 127.53125 L 267.785156 127.53125 L 267.785156 140.867188 L 254.4375 140.867188 L 254.4375 154.203125 L 241.085938 154.203125 L 241.085938 140.867188 L 254.4375 140.867188 L 254.4375 127.53125 L 241.085938 127.53125 L 241.085938 100.855469 L 227.738281 100.855469 L 227.738281 114.191406 L 201.039062 114.191406 L 201.039062 127.53125 L 214.386719 127.53125 L 214.386719 140.867188 L 227.738281 140.867188 L 227.738281 154.203125 L 214.386719 154.203125 L 214.386719 140.867188 L 201.039062 140.867188 L 201.039062 167.539062 L 214.386719 167.539062 L 214.386719 207.550781 L 227.738281 207.550781 L 227.738281 194.214844 L 254.4375 194.214844 L 254.4375 234.226562 L 241.085938 234.226562 L 241.085938 207.550781 L 227.738281 207.550781 L 227.738281 220.886719 L 214.386719 220.886719 L 214.386719 234.226562 L 201.039062 234.226562 L 201.039062 180.878906 L 187.6875 180.878906 L 187.6875 154.203125 L 160.988281 154.203125 L 160.988281 167.539062 L 174.335938 167.539062 L 174.335938 180.878906 L 160.988281 180.878906 L 160.988281 194.214844 L 187.6875 194.214844 L 187.6875 220.886719 L 174.335938 220.886719 L 174.335938 207.550781 L 147.636719 207.550781 L 147.636719 220.886719 L 134.289062 220.886719 L 134.289062 340.921875 L 147.636719 340.921875 L 147.636719 314.246094 L 174.335938 314.246094 L 174.335938 340.921875 L 187.6875 340.921875 L 187.6875 314.246094 L 201.039062 314.246094 L 201.039062 300.910156 L 214.386719 300.910156 L 214.386719 314.246094 L 227.738281 314.246094 L 227.738281 340.921875 L 254.4375 340.921875 L 254.4375 327.585938 L 241.085938 327.585938 L 241.085938 314.246094 L 254.4375 314.246094 L 254.4375 287.574219 L 281.136719 287.574219 L 281.136719 274.234375 L 294.488281 274.234375 L 294.488281 287.574219 L 281.136719 287.574219 L 281.136719 300.910156 L 267.785156 300.910156 L 267.785156 314.246094 L 281.136719 314.246094 L 281.136719 327.585938 L 267.785156 327.585938 L 267.785156 340.921875 L 334.535156 340.921875 L 334.535156 300.910156 L 321.1875 300.910156 L 321.1875 287.574219 L 307.835938 287.574219 L 307.835938 260.898438 L 321.1875 260.898438 L 321.1875 274.234375 L 334.535156 274.234375 L 334.535156 247.5625 L 321.1875 247.5625 L 321.1875 220.886719 L 307.835938 220.886719 L 307.835938 207.550781 L 281.136719 207.550781 L 281.136719 220.886719 L 294.488281 220.886719 L 294.488281 234.226562 L 307.835938 234.226562 L 307.835938 247.5625 L 294.488281 247.5625 L 294.488281 260.898438 L 267.785156 260.898438 L 267.785156 247.5625 L 281.136719 247.5625 L 281.136719 234.226562 L 267.785156 234.226562 L 267.785156 194.214844 L 281.136719 194.214844 L 281.136719 180.878906 L 254.4375 180.878906 L 254.4375 167.539062 L 281.136719 167.539062 L 281.136719 180.878906 L 294.488281 180.878906 L 294.488281 167.539062 L 321.1875 167.539062 L 321.1875 154.203125 L 334.535156 154.203125 L 334.535156 127.53125 L 321.1875 127.53125 L 321.1875 140.867188 " fill-opacity="1" fill-rule="nonzero"/></g><g clip-path="url(#6463248181)"><path fill="#040606" d="M 334.535156 207.550781 L 321.1875 207.550781 L 321.1875 220.886719 L 334.535156 220.886719 L 334.535156 207.550781 " fill-opacity="1" fill-rule="nonzero"/></g></svg>